<svg xmlns="http://www.w3.org/2000/svg" viewBox="0 0 512 512">
  <defs>
    <linearGradient id="bg" x1="0%" y1="0%" x2="100%" y2="100%">
      <stop offset="0%" stop-color="#151921"/>
      <stop offset="100%" stop-color="#0c0f14"/>
    </linearGradient>
  </defs>
  <rect width="512" height="512" rx="108" fill="url(#bg)"/>
  <path d="M256 100c-16 0-29 13-29 29v204l-63-63c-11-11-29-11-40 0s-11 29 0 40l112 112c11 11 29 11 40 0l112-112c11-11 11-29 0-40s-29-11-40 0l-63 63V129c0-16-13-29-29-29z" fill="none" stroke="#c9a96e" stroke-width="6" opacity="0.15"/>
  <path d="M160 140h192c13 0 24 11 24 24v224c0 13-11 24-24 24H160c-13 0-24-11-24-24V164c0-13 11-24 24-24z" fill="none" stroke="#c9a96e" stroke-width="16" stroke-linecap="round" stroke-linejoin="round" opacity="0.9"/>
  <path d="M136 196h240" stroke="#c9a96e" stroke-width="16" stroke-linecap="round" opacity="0.5"/>
  <path d="M256 140v-24c0-8 7-15 15-15h57c8 0 15 7 15 15v39" fill="none" stroke="#c9a96e" stroke-width="16" stroke-linecap="round" stroke-linejoin="round" opacity="0.9"/>
  <circle cx="208" cy="280" r="8" fill="#c9a96e" opacity="0.7"/>
  <path d="M240 280h96" stroke="#c9a96e" stroke-width="12" stroke-linecap="round" opacity="0.5"/>
  <circle cx="208" cy="328" r="8" fill="#c9a96e" opacity="0.7"/>
  <path d="M240 328h72" stroke="#c9a96e" stroke-width="12" stroke-linecap="round" opacity="0.5"/>
</svg>
